<?xml version="1.0" encoding="utf-8"?>
<!-- Generator: Adobe Illustrator 14.0.0, SVG Export Plug-In . SVG Version: 6.00 Build 43363)  -->
<!DOCTYPE svg PUBLIC "-//W3C//DTD SVG 1.1//EN" "http://www.w3.org/Graphics/SVG/1.1/DTD/svg11.dtd">
<svg version="1.1" id="Layer_1" xmlns="http://www.w3.org/2000/svg" xmlns:xlink="http://www.w3.org/1999/xlink" x="0px" y="0px"
	 width="340px" height="120px" viewBox="0 0 340 120" style="enable-background:new 0 0 340 120;" xml:space="preserve">
<g>
	<g>
		<path style="fill:#5B2B82;" d="M57.1,4v29c1.9-0.5,4.3-0.8,6.7-1V18c0-3.4,2.8-6.2,6.2-6.2c3.4,0,6.2,2.8,6.2,6.2v14.8
			c2.1,0.3,4.3,0.8,6.7,1.4V18c0-3.4,2.8-6.2,6.2-6.2s6.2,2.8,6.2,6.2v20.3c2,0.8,4.2,1.8,6.7,2.7V18c0-3.4,2.8-6.2,6.2-6.2
			c3.4,0,6.2,2.8,6.2,6.2v26.7c2.2,0.7,4.7,0.8,6.6,0.7V4H57.1z"/>
		<path style="fill:#FFC72B;" d="M44.3,44.8c0.7-1,11.8-17.8,48.5-4.1c8.4,3.1,24.3,11.8,36.5,5.6C109.3,67.3,79.6,27.6,44.3,44.8
			L44.3,44.8L44.3,44.8z"/>
		<path style="fill:#FFC72B;" d="M58.1,43.5c0,0,7.8-2,25.8,4c15.3,5.1,17.4,8.1,31.4,7c0,0-10.4,6.3-32.4-1.5
			C72,49.2,70.7,45.4,58.1,43.5z"/>
	</g>
	<g>
		<g>
			<g>
				<path style="fill:#5B2B82;" d="M32.4,82.2h-1.2c-0.2-6-1.5-6.3-12.8-6.3c-3.5,0-4.9,0.1-6.2,0.4l-0.1,4.8
					c-0.1,2.7-0.1,9.8,0.6,13.8c1.3,0.4,3,1.1,9,1.1c10.9,0,13.8-2.2,16-8.4h1.1c-0.8,5.3-1.4,7.3-2.9,10.4
					c-1.3-0.1-5.2-0.2-8.6-0.2c-3.5,0-6.6-0.1-6.7-0.1C14,97.6,6.4,97.8,2,98.1l0.1-1.2c4-0.8,4.2-0.9,4.6-3.8
					c0.5-3.4,0.8-15.4,0.8-17.7L7.2,64.5C7,55.1,6.7,55.1,2.6,54.2l0.1-0.9h22.1c2.4,0,7.5-0.1,11.2-0.3c-0.4,4.8-0.8,7.7-1.7,8.9
					l-0.9-0.3c0-0.7,0.3-2.5,0.3-2.9c0-3.8-7-3.9-10.2-3.9c-4.7,0-7.8,0.4-10.6,0.7c-0.3,2.5-0.6,5.5-0.6,9.6c0,3,0,7.7,0.1,8.9
					c0.8,0.1,2.8,0.1,5.1,0.1c3.6,0,8-0.1,10-0.3c2.5-0.3,2.9-0.3,4.2-4.6h0.9V82.2z"/>
				<path style="fill:#5B2B82;" d="M44.1,79.2c-0.1-0.6-0.3-1.1-0.3-1.6c0-3.9,9-6.6,10.8-6.6c1.4,0,3.7,1.7,4.5,2.5
					c0.9,0.9,2.1,2.2,2.1,7.2c0,1.5-0.1,3-0.1,4.6L61,87.7c-0.1,1.8-0.1,2.1-0.1,2.9c0,0.5,0,4.6,1.9,4.6c1.4,0,3-0.7,3.6-1v1.4
					l-5.1,2c-0.6,0.3-1.3,0.5-1.7,0.5c-1.1,0-2.3-1.8-2.8-3.5c-1.6,0.8-6.2,3.5-9.8,3.5c-4.2,0-4.2-3.7-4.2-4.8
					c0-3.4,0.8-4.4,2.4-5.3c4.1-2,9.5-2.7,11.6-3l0.1-4.2c0.1-3.4-0.3-4.3-1.3-5.4c-1.3-1.3-3-2-4.2-2c-1.1,0-3.2,0.7-3.2,2.3
					c0,0.4,0.1,0.9,0.4,1.5L44.1,79.2z M49.8,96c1.7,0,4.4-1.3,6.7-2.5c-0.1-1.6,0.1-5.3,0.2-6.5c-6.3-0.4-10.1,2-10.1,4.6
					C46.7,93.4,47.7,96,49.8,96z"/>
			</g>
			<g>
				<path style="fill:#5B2B82;" d="M69,89.9c0,1.1,3.2,6,8.3,6c1,0,4.9-0.1,4.9-3.7c0-3.7-4-5.6-5.5-6.4L74,84.6
					C71.9,83.6,69,82,69,78.9c0-3.1,3.4-7.3,9.3-7.3c1.2,0,2.7,0.1,5.5,0.5l1.1,5.8h-1.2c-0.6-2.4-4.4-4.9-6.6-4.9
					c-2.5,0-4.1,1.6-4.1,4c0,2,1.1,2.9,4,4.2l2.1,1c2.3,1.1,6.9,3.3,6.9,8.2c0,1.3-0.5,3.6-2,4.5c-4.2,2.6-6.4,2.9-8.5,2.9
					c-2.8,0-5.1-0.8-7.2-1.4c0.1-0.7,0.3-1.3,0.3-2c0-1-0.5-3.4-0.8-4.6L69,89.9z"/>
			</g>
			<g>
				<path style="fill:#5B2B82;" d="M92,74.4c-1.1-0.1-1.6-0.2-3.7-0.2l0.1-0.8c4.2-2.6,5.9-4.4,8.7-8.2l-0.4,6.2
					c1.5,0.1,3.2,0.3,6.5,0.3c1.2,0,1.7,0,3.7-0.1l-0.1,2.1c-1.2,0.1-2.5,0.2-3.7,0.2c-0.8,0-4.3-0.2-5-0.2c-1.7,0-1.6,0.4-1.7,3.9
					l-0.1,10.7c-0.1,2.8-0.1,7.1,4.4,7.1c1.9,0,4.6-1.1,6.6-2l0.1,0.7c-1.6,1.7-6.7,3.9-10.2,3.9c-2.4,0-5.4-1.3-5.4-6.8v-3.4
					L92,74.4z"/>
				<path style="fill:#5B2B82;" d="M163.8,95.7c-3.5,1.1-8,2.3-13.3,2.3c-11.4,0-23.6-7.9-23.6-23c0-16,13.6-22.6,25-22.6
					c4.4,0,8,1.2,9.2,1.7c0.6,0.2,1.8,0.6,3.1,0.6c0.2,0,1.1-0.2,1.3-0.2c0.3,0,0.4,0.3,0.4,0.3c0,0.1-0.4,1.8-0.5,2
					c-0.6,2-1,4.4-1.3,6.5c-0.9-0.1-1.1-0.6-1.1-1.5c0-1.9-0.3-2.5-0.6-3c-1.1-1.8-6.7-4.6-12.1-4.6c-9.8,0-17.6,7.5-17.6,20.7
					c0,16.9,13.7,21.5,19,21.5c7.8,0,10.4-4.1,12.7-8.2c0.4-0.8,0.6-1,0.9-1c0.3,0,0.6,0.1,0.6,0.6c0,0.6-0.5,2.2-0.6,2.7
					L163.8,95.7z"/>
				<path style="fill:#5B2B82;" d="M171.6,79.2c-0.1-0.6-0.3-1.1-0.3-1.6c0-3.9,9-6.6,10.8-6.6c1.4,0,3.7,1.7,4.5,2.5
					c0.9,0.9,2.1,2.2,2.1,7.2c0,1.5-0.1,3-0.1,4.6l-0.1,2.6c-0.1,1.8-0.1,2.1-0.1,2.9c0,0.5,0,4.6,1.9,4.6c1.4,0,3-0.7,3.6-1v1.4
					l-5.1,2c-0.6,0.3-1.3,0.5-1.7,0.5c-1.1,0-2.3-1.8-2.8-3.5c-1.5,0.8-6.2,3.5-9.8,3.5c-4.2,0-4.2-3.7-4.2-4.8
					c0-3.4,0.8-4.4,2.4-5.3c4.1-2,9.5-2.7,11.6-3l0.1-4.2c0.1-3.4-0.3-4.3-1.3-5.4c-1.3-1.3-3-2-4.2-2c-1.1,0-3.2,0.7-3.2,2.3
					c0,0.4,0.1,0.9,0.4,1.5L171.6,79.2z M177.4,96c1.7,0,4.4-1.3,6.7-2.5c-0.1-1.6,0.1-5.3,0.2-6.5c-6.3-0.4-10.1,2-10.1,4.6
					C174.2,93.4,175.2,96,177.4,96z"/>
			</g>
			<g>
				<path style="fill:#5B2B82;" d="M203.6,70c0.1,2.1,0.1,2.5,0.1,5.8l4.2-2.4c0.7-0.4,2.5-1.5,4.4-2.7c0.3,0.2,0.5,0.4,0.8,0.5
					c1,0.5,2.2,1.1,2.2,2.9c0,2-1.9,3-3.7,3.2c0-1.6-0.8-2.4-2.1-2.4c-1.6,0-3.7,1.3-4.6,2.1c-1.1,1-1.1,1-1.2,3.7
					c0,0.8-0.2,4.7-0.2,6.1c0,1.8,0.1,7,0.7,8.3c0.4,0.8,0.9,0.8,2,0.8h0.9l4.1-0.1l-0.1,1.5l-16,0.4l0.1-1.1
					c3.5-0.6,4.3-0.8,4.3-13.9c0-5.1-0.2-6.9-2.7-6.9c-0.5,0-1.6,0.1-2.2,0.3l0.1-1.1L203.6,70z"/>
			</g>
			<g>
				<path style="fill:#5B2B82;" d="M230.5,71.3c7.2,0,13.3,5.6,13.3,13c0,7-5.3,13.6-13.7,13.6c-5.5,0-14-3.4-14-13.2
					C216.1,76.6,222.7,71.3,230.5,71.3z M230.5,96.3c4.7,0,8.7-4.1,8.7-10.6c0-6.3-4.4-12.8-10.4-12.8c-4.7,0-8.2,4.1-8.2,9.8
					C220.6,89.1,224.7,96.3,230.5,96.3z"/>
			</g>
			<g>
				<path style="fill:#5B2B82;" d="M254.8,81.5c-0.1,3.3,0,11.6,0.5,13.1c0.5,1.5,4.5,1.9,5.2,2v1.2c-1,0-6.5-0.4-9.1-0.4
					c-0.9,0-4.4,0.1-6.4,0.3v-1.1c3.5-0.6,4.7-1.9,5-4.9c0.4-2.2,0.9-15.5,0.9-24.7c0-3.6,0-9.1-0.9-10.3c-0.4-0.6-1.2-0.8-2.3-0.8
					c-0.7,0-1.1,0.1-1.6,0.1v-1.1c3.5-1.5,6.8-2.9,9.2-4.6h1.1c-1,3.7-1.3,10.7-1.3,14.7L254.8,81.5z"/>
				<path style="fill:#5B2B82;" d="M262.9,96.7c1.4-0.1,3-0.3,3.3-1.1c0.4-0.8,0.6-9.1,0.6-10.8c0-6.5-0.2-7.5-0.8-8.1
					c-0.4-0.4-3.3-0.2-3.3-0.8c0-0.5,0.4-0.6,0.6-0.7c2.8-0.8,5.7-2.6,8-4.5c0.2,0,0.4,0.1,0.6,0.1c-0.7,3.1-1.1,11.5-1.1,15.1
					c0,1.5,0.1,7.5,0.6,9.2c0.3,0.8,0.7,0.9,2.3,1c1.8,0.1,1.9,0.1,2.4,0.2l0.4,1l-13.9,0.4L262.9,96.7z M270.7,54
					c1.4,0,2.6,1.2,2.6,2.7c0,1.4-1.1,2.7-2.6,2.7c-1.5,0-2.7-1.2-2.7-2.7C268,55.1,269.2,54,270.7,54z"/>
				<path style="fill:#5B2B82;" d="M287,86.3c-0.1,5.3-0.1,5.9,0.1,7.7c0.1,1.3,0.2,2,4.5,2.5l-0.1,1c-0.6-0.1-1.6-0.1-2.6-0.1
					c-1.1-0.1-2.2-0.1-3.2-0.1h-7.5l-0.1-1.1c3.9-0.7,4-1.5,4.2-2.9c0.4-2.7,0.5-8.3,0.5-10.2c0-7.4-0.4-7.4-4.5-7.9
					c0-0.2,0-0.4-0.1-0.6c2.4-0.6,6.5-2.6,6.6-2.7c0.1-0.1,1.3-0.7,1.6-0.7c0.8,0,0.8,1.8,0.8,4.3c4.5-2.5,7.8-3.9,10.9-3.9
					c7.1,0,7.1,5.4,7.1,10.5v8.1c0,2,0,4.9,0.4,5.3c0.4,0.4,3.1,0.8,3.5,1.1l0.1,1.1c-0.8-0.1-2.3-0.4-6-0.4c-2.9,0-5.6,0.2-6.9,0.4
					v-1c2.5-0.5,3.4-1.1,3.9-2c0.8-1.6,0.9-9.1,0.9-10.5c0-4.5,0-9.7-5.4-9.7c-0.3,0-3.8,0-8.6,2.5L287,86.3z"/>
				<path style="fill:#5B2B82;" d="M313.8,79.2c-0.1-0.6-0.3-1.1-0.3-1.6c0-3.9,9-6.6,10.8-6.6c1.4,0,3.7,1.7,4.5,2.5
					c0.9,0.9,2.1,2.2,2.1,7.2c0,1.5-0.1,3-0.1,4.6l-0.1,2.6c-0.1,1.8-0.1,2.1-0.1,2.9c0,0.5,0,4.6,1.9,4.6c1.4,0,3-0.7,3.6-1v1.4
					l-5.1,2c-0.6,0.3-1.3,0.5-1.7,0.5c-1.1,0-2.3-1.8-2.8-3.5c-1.6,0.8-6.2,3.5-9.8,3.5c-4.2,0-4.2-3.7-4.2-4.8
					c0-3.4,0.8-4.4,2.4-5.3c4.1-2,9.5-2.7,11.6-3l0.1-4.2c0.1-3.4-0.3-4.3-1.3-5.4c-1.3-1.3-3-2-4.2-2c-1.1,0-3.2,0.7-3.2,2.3
					c0,0.4,0.1,0.9,0.4,1.5L313.8,79.2z M319.5,96c1.7,0,4.4-1.3,6.7-2.5c-0.1-1.6,0.1-5.3,0.2-6.5c-6.3-0.4-10.1,2-10.1,4.6
					C316.3,93.4,317.3,96,319.5,96z"/>
			</g>
		</g>
		<g>
			<path style="fill:#5B2B82;" d="M226.4,114c-2.1,0-3.3-1.1-3.3-3.4v-4.3h1.7v4.3c0,1.2,0.6,1.9,1.6,1.9c1,0,1.6-0.6,1.6-1.8v-4.3
				h1.7v4.3C229.8,112.9,228.5,114,226.4,114z"/>
			<path style="fill:#5B2B82;" d="M241.7,113.9l-3.7-4.8v4.8h-1.7v-7.6h1.5l3.6,4.7v-4.7h1.7v7.6H241.7z"/>
			<path style="fill:#5B2B82;" d="M250,113.9v-7.6h1.7v7.6H250z"/>
			<path style="fill:#5B2B82;" d="M262.4,113.9h-1.5l-3.1-7.6h1.9l2,5.3l2-5.3h1.8L262.4,113.9z"/>
			<path style="fill:#5B2B82;" d="M271.5,113.9v-7.6h5.8v1.5h-4.1v1.5h3.6v1.5h-3.6v1.6h4.1v1.5H271.5z"/>
			<path style="fill:#5B2B82;" d="M288.4,113.9l-1.6-2.4h-1.3v2.4h-1.7v-7.6h3.5c1.8,0,2.9,0.9,2.9,2.5v0c0,1.2-0.7,2-1.6,2.4
				l1.9,2.7H288.4z M288.4,108.9c0-0.7-0.5-1.1-1.3-1.1h-1.7v2.2h1.7C287.9,110,288.4,109.5,288.4,108.9L288.4,108.9z"/>
			<path style="fill:#5B2B82;" d="M299.2,114c-1.2,0-2.3-0.4-3.2-1.2l1-1.2c0.7,0.6,1.4,0.9,2.3,0.9c0.7,0,1.1-0.3,1.1-0.7v0
				c0-0.4-0.3-0.6-1.5-1c-1.5-0.4-2.5-0.8-2.5-2.3v0c0-1.4,1.1-2.3,2.7-2.3c1.1,0,2.1,0.3,2.8,1l-0.9,1.3c-0.7-0.5-1.3-0.7-2-0.7
				c-0.6,0-1,0.3-1,0.7v0c0,0.5,0.3,0.7,1.6,1c1.5,0.4,2.4,1,2.4,2.3v0C302,113.1,300.9,114,299.2,114z"/>
			<path style="fill:#5B2B82;" d="M308.5,113.9v-7.6h1.7v7.6H308.5z"/>
			<path style="fill:#5B2B82;" d="M320.4,107.8v6.1h-1.7v-6.1h-2.3v-1.5h6.3v1.5H320.4z"/>
			<path style="fill:#5B2B82;" d="M332.8,110.9v3h-1.7v-3l-2.9-4.6h2l1.8,3l1.9-3h1.9L332.8,110.9z"/>
		</g>
		<g>
			<path style="fill:#5B2B82;" d="M333.7,63.3c1.2,0,2.1,0.9,2.1,2.1c0,1.2-0.9,2.1-2.1,2.1c-1.1,0-2.1-0.9-2.1-2.1
				C331.6,64.2,332.6,63.3,333.7,63.3L333.7,63.3z M333.7,63.6c-0.9,0-1.7,0.8-1.7,1.8c0,1,0.8,1.8,1.7,1.8c0.9,0,1.7-0.8,1.7-1.8
				C335.4,64.4,334.7,63.6,333.7,63.6L333.7,63.6z M333.3,66.6H333v-2.3c0.2,0,0.4-0.1,0.7-0.1c0.4,0,0.6,0.1,0.7,0.2
				s0.2,0.3,0.2,0.5c0,0.3-0.2,0.5-0.5,0.6v0c0.2,0,0.3,0.2,0.4,0.6c0.1,0.4,0.1,0.5,0.2,0.6h-0.4c-0.1-0.1-0.1-0.3-0.2-0.6
				c-0.1-0.3-0.2-0.4-0.5-0.4h-0.3V66.6z M333.3,65.3h0.3c0.3,0,0.6-0.1,0.6-0.4c0-0.2-0.1-0.4-0.6-0.4c-0.1,0-0.2,0-0.3,0V65.3z"/>
		</g>
	</g>
</g>
</svg>
